<?xml version="1.0" encoding="UTF-8" standalone="no"?>
<!DOCTYPE svg PUBLIC "-//W3C//DTD SVG 1.1//EN" "http://www.w3.org/Graphics/SVG/1.1/DTD/svg11.dtd">
<svg xmlns="http://www.w3.org/2000/svg" xmlns:xl="http://www.w3.org/1999/xlink" version="1.1" viewBox="392 412 289 77" width="289pt" height="77pt" xmlns:dc="http://purl.org/dc/elements/1.1/">
  <metadata> Produced by OmniGraffle 7.5 
    <dc:date>2017-10-19 15:52:12 +0000</dc:date>
  </metadata>
  <defs/>
  <g stroke="none" stroke-opacity="1" stroke-dasharray="none" fill="none" fill-opacity="1">
    <title>Canvas 1</title>
    <g>
      <title>Layer 1</title>
      <path d="M 440.165 480.5 C 439.215 480.5 438.8825 480.1675 438.8825 479.265 L 438.8825 464.9675 C 438.8825 457.7475 436.4125 453.995 431.4725 451.6675 C 430.5225 451.1925 429.4775 450.9075 429.4775 450.575 C 429.4775 450.195 430.2375 449.8625 431.425 449.245 C 436.0325 446.8225 438.8825 443.1175 438.8825 435.2325 L 438.8825 430.2925 C 438.8825 419.225 432.6125 412.1 419.36 412.1 L 392.3325 412.1 L 392.3325 488.2425 L 401.3575 488.2425 L 401.3575 455.8475 C 401.3575 454.945 401.69 454.6125 402.64 454.6125 L 419.1225 454.6125 C 426.485 454.6125 429.8575 458.27 429.8575 465.585 L 429.8575 488.2425 L 448.8575 488.2425 L 448.8575 480.5 Z M 402.64 446.87 C 401.69 446.87 401.3575 446.5375 401.3575 445.635 L 401.3575 421.0775 C 401.3575 420.1275 401.69 419.8425 402.64 419.8425 L 418.2675 419.8425 C 426.5325 419.8425 429.7625 423.405 429.7625 430.6725 L 429.7625 435.6125 C 429.7625 442.0725 427.4825 446.87 418.98 446.87 Z" fill="#804279"/>
      <path d="M 481.24 480.5 C 480.6225 480.5 480.385 480.31 480.385 479.8825 C 480.385 479.4075 481.05 479.0275 482 478.505 C 486.37 476.035 489.4575 471.9975 490.2175 467.01 L 481.05 467.01 C 479.9575 471.0475 476.68 473.755 469.365 473.755 C 461.29 473.755 457.015 470.145 457.015 462.925 L 457.015 459.98 C 457.015 459.125 457.3 458.84 458.2025 458.84 L 490.5025 458.84 L 490.5025 447.9625 C 490.5025 435.8025 482.855 428.44 471.6925 428.44 L 466.9425 428.44 C 456.2075 428.44 448.1325 435.565 448.1325 447.725 L 448.1325 461.69 C 448.1325 469.955 451.8375 475.8925 457.49 478.8375 C 458.1075 479.17 458.535 479.5025 458.535 479.8825 C 458.535 480.31 458.25 480.5 457.6325 480.5 L 439.1075 480.5 L 439.1075 488.2425 L 499.5275 488.2425 L 499.5275 480.5 Z M 457.015 447.25 C 457.015 439.4125 461.385 435.9925 469.27 435.9925 C 477.25 435.9925 481.62 439.4125 481.62 447.25 L 481.62 450.29 C 481.62 451.1925 481.335 451.4775 480.4325 451.4775 L 458.2025 451.4775 C 457.3 451.4775 457.015 451.1925 457.015 450.29 Z" fill="#804279"/>
      <path d="M 514.575 480.5 C 513.6725 480.5 513.34 480.1675 513.34 479.265 L 513.34 437.75 C 513.34 436.8475 513.6725 436.515 514.575 436.515 L 526.7825 436.515 L 526.7825 428.915 L 514.575 428.915 C 513.6725 428.915 513.34 428.5825 513.34 427.68 L 513.34 424.07 C 513.34 420.9825 514.8125 419.7 517.71 419.7 L 526.735 419.7 L 526.735 412.1 L 517.0925 412.1 C 508.3525 412.1 504.315 416.6125 504.315 424.1175 L 504.315 427.68 C 504.315 428.5825 503.9825 428.915 503.08 428.915 L 495.2425 428.915 L 495.2425 436.515 L 503.08 436.515 C 503.9825 436.515 504.315 436.8475 504.315 437.75 L 504.315 479.265 C 504.315 480.1675 503.9825 480.5 503.08 480.5 L 490.0175 480.5 L 490.0175 488.2425 L 532.815 488.2425 L 532.815 480.5 Z" fill="#804279"/>
      <path d="M 555.0925 480.5 C 554.19 480.5 553.8575 480.1675 553.8575 479.265 L 553.8575 472.7575 L 552.0525 472.7575 C 549.155 472.7575 547.6825 471.475 547.6825 468.34 L 547.6825 412.1 L 538.6575 412.1 L 538.6575 468.4825 C 538.6575 473.565 540.51 477.27 544.405 479.1225 C 544.975 479.4075 545.0225 479.5975 545.0225 479.93 C 545.0225 480.2625 544.785 480.5 544.2625 480.5 L 528.065 480.5 L 528.065 488.2425 L 561.4575 488.2425 L 561.4575 480.5 Z" fill="#804279"/>
      <path d="M 594.6975 480.5 C 594.08 480.5 593.8425 480.31 593.8425 479.8825 C 593.8425 479.455 594.46 479.075 595.3625 478.5525 C 600.7775 475.5125 604.245 469.7175 604.245 461.7375 L 604.245 447.725 C 604.245 435.565 596.2175 428.44 585.3875 428.44 L 580.685 428.44 C 569.9025 428.44 561.8275 435.565 561.8275 447.725 L 561.8275 461.7375 C 561.8275 469.7175 565.295 475.5125 570.6625 478.5525 C 571.5175 479.0275 572.23 479.4075 572.23 479.8825 C 572.23 480.31 571.945 480.5 571.3275 480.5 L 552.7075 480.5 L 552.7075 488.2425 L 613.365 488.2425 L 613.365 480.5 Z M 570.8525 447.82 C 570.8525 439.9825 574.985 436.1825 582.965 436.1825 C 591.0875 436.1825 595.22 439.9825 595.22 447.82 L 595.22 461.6425 C 595.22 469.8125 591.0875 473.6125 582.965 473.6125 C 574.985 473.6125 570.8525 469.8125 570.8525 461.6425 Z" fill="#804279"/>
      <path d="M 671.2575 428.915 L 664.75 464.3975 C 663.705 470.05 663.135 473.2325 662.66 473.2325 C 662.28 473.2325 661.33 470.05 659.8575 464.4925 L 650.405 428.915 L 639.195 428.915 L 629.7425 464.4925 C 628.2225 470.2875 627.32 473.2325 626.94 473.2325 C 626.465 473.2325 625.9425 470.1925 624.85 464.3975 L 618.295 428.915 L 609.0325 428.915 L 619.9575 478.2675 C 620.1475 479.17 620.2425 479.645 620.2425 479.8825 C 620.2425 480.2625 620.005 480.5 619.3875 480.5 L 603.19 480.5 L 603.19 488.2425 L 630.455 488.2425 L 642.235 445.065 C 643.6125 440.03 644.42 436.515 644.7525 436.515 C 645.1325 436.515 645.9875 439.9825 647.365 445.065 L 659.145 488.2425 L 667.41 488.2425 L 680.5675 428.915 Z" fill="#804279"/>
    </g>
  </g>
</svg>
